# xmcd
# 
# Track frame offsets:
#     150
#     18583
#     31543
#     49350
#     69465
#     89018
#     107305
#     131598
#     153008
#     168058
# 
# Disc length: 2550
# 
# Revision: 4
# Processed by: cddbd v1.5.2PL0 Copyright (c) Steve Scherf et al.
# Submitted via: BonkEnc v1.0.6
# 
DISCID=7009f40a
DTITLE=Montreux - Let Them Say
DYEAR=1989
DGENRE=Jazz
TTITLE0=Let Them Say
TTITLE1=October Wedding
TTITLE2=Astronomics
TTITLE3=Barbara's Dream
TTITLE4=Mandoline Rising
TTITLE5=Finding Time
TTITLE6=Road to Vernazza
TTITLE7=King Sod
TTITLE8=Still Mountain
TTITLE9=Free D
EXTD=YEAR: 1989
EXTT0=
EXTT1=
EXTT2=
EXTT3=
EXTT4=
EXTT5=
EXTT6=
EXTT7=
EXTT8=
EXTT9=
PLAYORDER=
